<svg width="173" height="75" viewBox="0 0 173 75" fill="none" xmlns="http://www.w3.org/2000/svg">
<path d="M20.875 47.7188L31.1875 13.5H41.625L25.7812 59H16L0.21875 13.5H10.625L20.875 47.7188ZM59.5312 59.625C54.5729 59.625 50.5312 58.1042 47.4062 55.0625C44.3021 52.0208 42.75 47.9688 42.75 42.9062V42.0312C42.75 38.6354 43.4062 35.6042 44.7188 32.9375C46.0312 30.25 47.8854 28.1875 50.2812 26.75C52.6979 25.2917 55.4479 24.5625 58.5312 24.5625C63.1562 24.5625 66.7917 26.0208 69.4375 28.9375C72.1042 31.8542 73.4375 35.9896 73.4375 41.3438V45.0312H51.9062C52.1979 47.2396 53.0729 49.0104 54.5312 50.3438C56.0104 51.6771 57.875 52.3438 60.125 52.3438C63.6042 52.3438 66.3229 51.0833 68.2812 48.5625L72.7188 53.5312C71.3646 55.4479 69.5312 56.9479 67.2188 58.0312C64.9062 59.0938 62.3438 59.625 59.5312 59.625ZM58.5 31.875C56.7083 31.875 55.25 32.4792 54.125 33.6875C53.0208 34.8958 52.3125 36.625 52 38.875H64.5625V38.1562C64.5208 36.1562 63.9792 34.6146 62.9375 33.5312C61.8958 32.4271 60.4167 31.875 58.5 31.875ZM86.9062 25.1875L87.1875 29.0938C89.6042 26.0729 92.8438 24.5625 96.9062 24.5625C100.49 24.5625 103.156 25.6146 104.906 27.7188C106.656 29.8229 107.552 32.9688 107.594 37.1562V59H98.5625V37.375C98.5625 35.4583 98.1458 34.0729 97.3125 33.2188C96.4792 32.3438 95.0938 31.9062 93.1562 31.9062C90.6146 31.9062 88.7083 32.9896 87.4375 35.1562V59H78.4062V25.1875H86.9062ZM125.281 16.875V25.1875H131.062V31.8125H125.281V48.6875C125.281 49.9375 125.521 50.8333 126 51.375C126.479 51.9167 127.396 52.1875 128.75 52.1875C129.75 52.1875 130.635 52.1146 131.406 51.9688V58.8125C129.635 59.3542 127.812 59.625 125.938 59.625C119.604 59.625 116.375 56.4271 116.25 50.0312V31.8125H111.312V25.1875H116.25V16.875H125.281Z" fill="black"/>
<circle cx="157.5" cy="43.5" r="15.5" fill="#71DCB0"/>
</svg>
